<?xml version="1.0" standalone="no"?><!DOCTYPE svg PUBLIC "-//W3C//DTD SVG 1.1//EN" "http://www.w3.org/Graphics/SVG/1.1/DTD/svg11.dtd"><svg t="1737712947230" class="icon" viewBox="0 0 1024 1024" version="1.1" xmlns="http://www.w3.org/2000/svg" p-id="14336" xmlns:xlink="http://www.w3.org/1999/xlink" width="32" height="32"><path d="M671.87712 486.51264l0 461.21984L378.7776 947.73248 378.7776 761.02656c-19.80416 8.30464-19.12832-9.18528-10.45504-34.4576-0.74752 0.98304-1.16736 1.51552-1.16736 1.51552-53.20704 33.49504-14.46912-50.40128 11.63264-100.42368L378.78784 476.2112c0 0 37.77536 43.22304 76.19584 0S671.87712 486.51264 671.87712 486.51264zM463.94368 409.21088c2.23232 2.77504 5.59104 4.38272 9.15456 4.38272l23.25504 0c-1.9456 0-3.6864-1.11616-4.51584-2.8672-15.32928-32.59392-17.98144-61.09184-7.87456-84.70528 13.54752-31.63136 44.92288-42.41408 46.25408-42.84416 2.06848-0.69632 4.37248 0.04096 5.65248 1.83296 1.24928 1.77152 1.21856 4.18816-0.12288 5.91872-14.20288 18.5856-1.90464 31.8464-0.33792 33.42336 41.2672 43.6224 7.26016 86.95808 6.92224 87.38816-0.96256 1.1776-2.38592 1.86368-3.90144 1.86368l33.81248 0c4.54656 0 8.69376-2.62144 10.62912-6.74816 36.12672-76.78976 42.38336-143.94368 18.55488-199.55712-31.90784-74.52672-105.8304-99.90144-108.9536-100.94592-4.90496-1.62816-10.28096 0.11264-13.27104 4.31104-3.01056 4.18816-2.89792 9.85088 0.21504 13.94688 33.45408 43.80672 4.48512 75.03872 0.80896 78.72512C382.976 306.11456 463.12448 408.18688 463.94368 409.21088z" p-id="14337"></path></svg>