<?xml version="1.0" standalone="no"?><!DOCTYPE svg PUBLIC "-//W3C//DTD SVG 1.1//EN" "http://www.w3.org/Graphics/SVG/1.1/DTD/svg11.dtd"><svg t="1753759159460" class="icon" viewBox="0 0 1024 1024" version="1.1" xmlns="http://www.w3.org/2000/svg" p-id="33281" xmlns:xlink="http://www.w3.org/1999/xlink" width="32" height="32"><path d="M512 512m-512 0a512 512 0 1 0 1024 0 512 512 0 1 0-1024 0Z" fill="#3271fd" p-id="33282" data-spm-anchor-id="a313x.search_index.0.i46.24253a81m77sd3" class="selected"></path><path d="M328.670968 720.103226l-62.761291-19.819355 94.141936-284.077419 297.290322 148.645161 71.019355-211.406452 62.761291 19.819355-94.141936 284.077419-297.290322-148.645161z" fill="#ffffff" p-id="33283" data-spm-anchor-id="a313x.search_index.0.i43.24253a81m77sd3" class=""></path><path d="M743.225806 346.83871m-82.580645 0a82.580645 82.580645 0 1 0 165.161291 0 82.580645 82.580645 0 1 0-165.161291 0Z" fill="#ffffff" p-id="33284" data-spm-anchor-id="a313x.search_index.0.i45.24253a81m77sd3" class=""></path><path d="M660.645161 627.612903m-82.580645 0a82.580645 82.580645 0 1 0 165.16129 0 82.580645 82.580645 0 1 0-165.16129 0Z" fill="#ffffff" p-id="33285" data-spm-anchor-id="a313x.search_index.0.i41.24253a81m77sd3" class=""></path><path d="M363.354839 445.935484m-82.580645 0a82.580645 82.580645 0 1 0 165.16129 0 82.580645 82.580645 0 1 0-165.16129 0Z" fill="#ffffff" p-id="33286" data-spm-anchor-id="a313x.search_index.0.i42.24253a81m77sd3" class=""></path><path d="M264.258065 726.709677m-82.580646 0a82.580645 82.580645 0 1 0 165.161291 0 82.580645 82.580645 0 1 0-165.161291 0Z" fill="#ffffff" p-id="33287" data-spm-anchor-id="a313x.search_index.0.i44.24253a81m77sd3" class=""></path></svg>