<?xml version="1.0" standalone="no"?><!DOCTYPE svg PUBLIC "-//W3C//DTD SVG 1.1//EN" "http://www.w3.org/Graphics/SVG/1.1/DTD/svg11.dtd"><svg t="1756693356444" class="icon" viewBox="0 0 1024 1024" version="1.1" xmlns="http://www.w3.org/2000/svg" p-id="73166" xmlns:xlink="http://www.w3.org/1999/xlink" width="48" height="48"><path d="M672 544v-128h256a64 64 0 0 1 64 64v448a64 64 0 0 1-64 64h-448a64 64 0 0 1-64-64v-256h128a128 128 0 0 0 128-128z" fill="#3AC75E" p-id="73167"></path><path d="M32 32m64 0l448 0q64 0 64 64l0 448q0 64-64 64l-448 0q-64 0-64-64l0-448q0-64 64-64Z" fill="#34ADFF" p-id="73168"></path><path d="M192 721.92v30.208c0 41.408 31.488 75.52 71.808 79.616l8.192 0.384h31.232v96H272a176 176 0 0 1-175.68-165.248l-0.32-10.752v-30.208H192z" fill="#3AC75E" p-id="73169"></path><path d="M751.808 96a176 176 0 0 1 175.68 165.248l0.32 10.752v33.408h-96V272a80 80 0 0 0-71.808-79.616L751.808 192h-29.248V96h29.248z" fill="#34ADFF" p-id="73170"></path><path d="M337.408 500.992V372.736h96v21.12h40.32V206.464h-136.32V140.8h-41.472v65.664H160v187.392h40.32v-21.12h95.616v128.256h41.472z m-41.472-167.424H200.32V245.632h95.616v87.936z m137.472 0h-96V245.632h96v87.936zM624 869.376l24.96-68.736h114.816l24.96 68.736h48L731.904 595.2h-51.072L576 869.376h48z m126.336-105.6H662.4l43.392-120.192h1.536l43.008 120.192z" fill="#FFFFFF" p-id="73171"></path></svg>