<?xml version="1.0" standalone="no"?><!DOCTYPE svg PUBLIC "-//W3C//DTD SVG 1.1//EN" "http://www.w3.org/Graphics/SVG/1.1/DTD/svg11.dtd"><svg t="1737712740001" class="icon" viewBox="0 0 1024 1024" version="1.1" xmlns="http://www.w3.org/2000/svg" p-id="13012" width="32" height="32" xmlns:xlink="http://www.w3.org/1999/xlink"><path d="M469.504 42.496a42.496 42.496 0 1 1 84.992 0v43.008a42.496 42.496 0 1 1-84.992 0z m0 896a42.496 42.496 0 1 1 84.992 0v43.008a42.496 42.496 0 0 1-84.992 0zM1024 512a42.496 42.496 0 0 0-42.496-42.496h-43.008a42.496 42.496 0 0 0 0 84.992h43.008A42.496 42.496 0 0 0 1024 512zM85.504 469.504a42.496 42.496 0 1 1 0 84.992H42.496a42.496 42.496 0 1 1 0-84.992zM783.36 843.776l30.208 30.208a42.496 42.496 0 0 0 60.416-60.416l-30.208-30.208a42.496 42.496 0 0 0-60.416 60.416zM240.64 240.64a43.52 43.52 0 0 1-60.416 0l-30.208-30.208a42.496 42.496 0 0 1 60.416-60.416l30.208 30.208a43.52 43.52 0 0 1 0 60.416z m-90.624 572.928a42.496 42.496 0 0 0 60.416 60.416l30.208-30.208a42.496 42.496 0 1 0-60.416-60.416z m693.76-572.928a42.496 42.496 0 0 1-60.416-60.416l30.208-30.208a42.496 42.496 0 0 1 60.416 60.416z" p-id="13013"></path><path d="M578.56 177.152a341.504 341.504 0 1 0 268.288 267.776A341.504 341.504 0 0 0 578.56 177.152zM472.064 764.928A256 256 0 0 1 409.6 277.504 280.064 280.064 0 0 0 682.496 563.2a291.84 291.84 0 0 0 82.432-11.776 256 256 0 0 1-292.864 213.504z" p-id="13014"></path></svg>