<?xml version="1.0" standalone="no"?><!DOCTYPE svg PUBLIC "-//W3C//DTD SVG 1.1//EN" "http://www.w3.org/Graphics/SVG/1.1/DTD/svg11.dtd"><svg t="1719420632695" class="icon" viewBox="0 0 1043 1024" version="1.1" xmlns="http://www.w3.org/2000/svg" p-id="1489" width="152.783203125" height="150" xmlns:xlink="http://www.w3.org/1999/xlink"><path d="M19.443038 521.540373c0 277.49764 224.961988 502.459627 502.459627 502.459627s502.459627-224.961988 502.459628-502.459627S799.400305 19.080745 521.902665 19.080745 19.443038 244.042733 19.443038 521.540373z" fill="#FFCF5D" p-id="1490"></path><path d="M1011.641796 421.12477C964.537796 191.386236 763.089647 19.080745 520.554293 19.080745 243.940727 19.080745 19.443038 244.793242 19.443038 522.895106c0 121.925963 43.097043 232.766012 114.255503 319.424397C218.887709 889.671553 316.097746 915.875776 420.329498 915.875776c294.65759 0 539.196422-213.621665 591.312298-494.751006z" fill="#FFE47C" p-id="1491"></path><path d="M203.890243 337.093168c0 49.177441 39.866037 89.043478 89.043478 89.043478s89.043478-39.866037 89.043478-89.043478S342.111162 248.049689 292.933721 248.049689 203.890243 287.915727 203.890243 337.093168z" fill="#8A604E" p-id="1492"></path><path d="M289.753597 340.273292m-28.621118 0a28.621118 28.621118 0 1 0 57.242236 0 28.621118 28.621118 0 1 0-57.242236 0Z" fill="#FFFFFF" opacity=".628" p-id="1493"></path><path d="M324.734963 381.614907m-12.720496 0a12.720497 12.720497 0 1 0 25.440993 0 12.720497 12.720497 0 1 0-25.440993 0Z" fill="#FFFFFF" opacity=".572" p-id="1494"></path><path d="M623.66664 337.093168c0 49.177441 39.866037 89.043478 89.043479 89.043478s89.043478-39.866037 89.043478-89.043478a89.043478 89.043478 0 1 0-178.086957 0z" fill="#8A604E" p-id="1495"></path><path d="M715.890243 340.273292m-28.621118 0a28.621118 28.621118 0 1 0 57.242236 0 28.621118 28.621118 0 1 0-57.242236 0Z" fill="#FFFFFF" opacity=".628" p-id="1496"></path><path d="M750.871609 381.614907m-12.720496 0a12.720497 12.720497 0 1 0 25.440993 0 12.720497 12.720497 0 1 0-25.440993 0Z" fill="#FFFFFF" opacity=".572" p-id="1497"></path><path d="M528.262914 782.310559c-131.205565 0-240.37923-95.276522-260.407652-220.649739C264.853224 540.595677 280.87469 521.540373 302.912951 521.540373h450.699925c22.038261 0 38.059727 19.055304 35.05769 40.120447C768.635783 687.027677 659.468479 782.310559 528.262914 782.310559z" fill="#7A5241" p-id="1498"></path><path d="M754.337945 521.540373H302.963833c-22.070062 0-38.116969 17.827776-35.108571 37.538186 1.004919 6.563776 2.003478 13.133913 4.006956 19.70405h512.572422c2.003478-6.570137 3.008398-13.140273 4.006957-19.70405 4.013317-19.71041-13.038509-37.538186-34.103652-37.538186z" fill="#FFFFFF" p-id="1499"></path><path d="M601.13228 636.024845c-30.828124 0-58.577888 15.786137-76.04949 39.993242C508.641547 651.810981 480.891783 636.024845 449.033299 636.024845c-48.306087 0-88.388373 37.888-92.497093 86.295851C402.781572 760.208696 461.365821 782.310559 525.08279 782.310559s122.301217-22.101863 168.546583-59.989863C689.520653 673.912845 649.438367 636.024845 601.13228 636.024845z" fill="#FF595F" p-id="1500"></path></svg>