<?xml version="1.0" standalone="no"?><!DOCTYPE svg PUBLIC "-//W3C//DTD SVG 1.1//EN" "http://www.w3.org/Graphics/SVG/1.1/DTD/svg11.dtd"><svg t="1756370908825" class="icon" viewBox="0 0 1024 1024" version="1.1" xmlns="http://www.w3.org/2000/svg" p-id="46445" width="48" height="48" xmlns:xlink="http://www.w3.org/1999/xlink"><path d="M511.996 1023.996c-281.5978 0-511.996-230.3982-511.996-511.996s230.3982-511.996 511.996-511.996 511.996 230.3982 511.996 511.996-230.3982 511.996-511.996 511.996z" fill="#F7BE15" p-id="46446"></path><path d="M717.266396 241.290115c-106.639167-47.087632-180.078593 47.943625-180.078593 47.943625s-10.28792 2.391981-39.231693-5.10396c-8.567933-2.215983-18.175858 6.911946-28.16778 5.10396-8.863931-1.607987-33.655737-19.479848-43.255662-20.39984-73.215428-7.023945-156.054781 5.231959-182.094578 123.439035-32.191749 36.727713-46.279638 95.895251-46.279638 95.895251l21.127835 65.28749 273.517863 470.052328c6.38395 0.239998 12.7599 0.487996 19.19985 0.487996 281.5978 0 511.996-230.3982 511.996-511.996 0-33.463739-3.351974-66.175483-9.559925-97.895235-47.487629-28.567777-261.725955-157.166772-297.173679-172.81465z" fill="#DB8E1F" p-id="46447"></path><path d="M464.900368 291.561722c14.759885-5.487957 32.151749-6.039953 49.623612-1.21599a73.979422 73.979422 0 0 1 19.655847 8.631932c21.071835-39.511691 65.559488-66.839478 117.199084-66.839478 71.68744 0 129.806986 52.52759 130.222983 117.463083 31.655753 19.127851 47.223631 55.431567 35.575722 90.135296-7.359943 21.927829-24.175811 38.839697-45.119648 48.343622 0 0-21.607831 10.375919-46.903633 8.231936" fill="#DFF1FA" p-id="46448"></path><path d="M732.14628 504.384059c-2.495981 0-5.055961-0.095999-7.64794-0.319997a7.783939 7.783939 0 0 1-7.095945-8.399934c0.367997-4.295966 4.199967-7.591941 8.399935-7.087945 22.743822 1.919985 42.687667-7.415942 42.895665-7.511941 20.127843-9.127929 34.679729-24.663807 41.103678-43.807658 10.27192-30.599761-2.679979-63.151507-32.223748-81.007367a7.767939 7.767939 0 0 1-3.75997-6.599949c-0.383997-60.511527-55.319568-109.735143-122.447044-109.735142-47.431629 0-89.703299 24.031812-110.335138 62.71151a7.71994 7.71994 0 0 1-4.863962 3.85597c-2.063984 0.599995-4.303966 0.223998-6.135952-0.935993-5.399958-3.391974-11.319912-5.999953-17.575863-7.71194-15.599878-4.327966-31.535754-3.967969-44.855649 0.991992a7.747939 7.747939 0 0 1-9.999922-4.575964 7.765939 7.765939 0 0 1 4.575964-9.991922c16.351872-6.071953 35.663721-6.575949 54.399575-1.423989 5.09596 1.399989 10.007922 3.279974 14.679886 5.599957 24.487809-39.71969 69.767455-64.087499 120.111061-64.0875 74.079421 0 134.974946 53.855579 137.902923 120.903056 32.807744 21.903829 47.287631 61.159522 35.279724 96.943242-7.815939 23.279818-25.319802 42.079671-49.287615 52.951587-0.719994 0.367997-19.479848 9.239928-43.119663 9.239927" fill="#474341" p-id="46449"></path><path d="M735.714252 337.305365c8.239936-26.415794-7.479942-55.271568-33.879735-63.127507-6.783947-2.023984-9.679924 8.567933-2.911977 10.575917 20.831837 6.199952 32.647745 28.999773 26.215795 49.631613-2.103984 6.759947 8.479934 9.647925 10.575917 2.919977" fill="#0F95BC" p-id="46450"></path><path d="M377.293052 718.846384a5.435958 5.435958 0 0 1-5.439957-5.439957v-22.839822c0-3.015976 2.431981-5.439958 5.439957-5.439958s5.439958 2.431981 5.439958 5.439958v22.839822a5.435958 5.435958 0 0 1-5.439958 5.439957M379.285037 670.182764a5.435958 5.435958 0 0 1-5.439958-5.439957V625.695112c0-3.007977 2.431981-5.439958 5.439958-5.439958s5.439958 2.431981 5.439957 5.439958v39.047695a5.429958 5.429958 0 0 1-5.439957 5.439957" fill="#474341" p-id="46451"></path><path d="M377.293052 673.806736h-40.671682c-3.007977 0-5.439958-2.431981-5.439957-5.439958s2.431981-5.439958 5.439957-5.439957h40.671682c3.007977 0 5.439958 2.431981 5.439958 5.439957s-2.431981 5.439958-5.439958 5.439958" fill="#474341" p-id="46452"></path><path d="M421.956703 673.806736h-41.463676c-3.015976 0-5.439958-2.431981-5.439957-5.439958s2.431981-5.439958 5.439957-5.439957h41.463676c3.007977 0 5.439958 2.431981 5.439958 5.439957s-2.431981 5.439958-5.439958 5.439958M349.117273 703.9745a5.443957 5.443957 0 0 1-3.84797-9.287927l20.911836-20.911837a5.451957 5.451957 0 0 1 7.69594 0 5.433958 5.433958 0 0 1 0 7.68794l-20.911837 20.911837c-1.063992 1.063992-2.455981 1.599988-3.847969 1.599987" fill="#474341" p-id="46453"></path><path d="M380.14103 672.950743a5.435958 5.435958 0 0 1-3.84797-9.287928l29.327771-29.311771a5.439958 5.439958 0 0 1 7.68794 0 5.427958 5.427958 0 0 1 0 7.68794l-29.319771 29.311771c-1.063992 1.063992-2.455981 1.599988-3.84797 1.599988" fill="#474341" p-id="46454"></path><path d="M405.420833 701.654518c-1.27199 0-2.55198-0.439997-3.575972-1.351989l-26.151796-22.871821a5.433958 5.433958 0 0 1-0.503996-7.67994c1.983985-2.239983 5.431958-2.487981 7.67194-0.503996l26.151796 22.871821a5.431958 5.431958 0 0 1 0.503996 7.67194 5.419958 5.419958 0 0 1-4.095968 1.863985M575.907501 706.718479h-22.839822c-3.015976 0-5.439958-2.431981-5.439957-5.439958s2.431981-5.439958 5.439957-5.439957h22.839822a5.435958 5.435958 0 0 1 5.439957 5.439957 5.435958 5.435958 0 0 1-5.439957 5.439958M529.627862 706.718479h-39.047695c-3.015976 0-5.439958-2.431981-5.439957-5.439958s2.431981-5.439958 5.439957-5.439957h39.047695a5.435958 5.435958 0 0 1 5.439958 5.439957 5.435958 5.435958 0 0 1-5.439958 5.439958M533.243834 749.390145a5.435958 5.435958 0 0 1-5.439957-5.439957v-25.039804c0-3.007977 2.431981-5.439958 5.439957-5.439958s5.439958 2.431981 5.439958 5.439958v25.039804a5.429958 5.429958 0 0 1-5.439958 5.439957" fill="#474341" p-id="46455"></path><path d="M533.243834 705.518488a5.435958 5.435958 0 0 1-5.439957-5.439957V658.614855c0-3.007977 2.431981-5.439958 5.439957-5.439958s5.439958 2.431981 5.439958 5.439958v41.463676a5.429958 5.429958 0 0 1-5.439958 5.439957M563.411598 736.894243a5.453957 5.453957 0 0 1-3.84797-1.591988l-20.911836-20.911836a5.427958 5.427958 0 0 1 0-7.68794 5.451957 5.451957 0 0 1 7.69594 0l20.911836 20.911837a5.435958 5.435958 0 0 1-3.84797 9.279927" fill="#474341" p-id="46456"></path><path d="M532.387841 705.870485a5.453957 5.453957 0 0 1-3.84797-1.591987l-29.319771-29.327771a5.427958 5.427958 0 0 1 0-7.68794 5.439958 5.439958 0 0 1 7.68794 0l29.327771 29.319771a5.435958 5.435958 0 0 1-3.84797 9.287927M686.08264 629.623081a5.435958 5.435958 0 0 1-3.84797-9.287927l16.159874-16.167874a5.453957 5.453957 0 0 1 7.70394 0.016 5.459957 5.459957 0 0 1-0.008 7.70394l-16.159874 16.143874a5.419958 5.419958 0 0 1-3.84797 1.591987M641.890985 673.806736a5.443957 5.443957 0 0 1-3.84797-9.287928l27.623784-27.607784a5.439958 5.439958 0 0 1 7.68794 0 5.411958 5.411958 0 0 1 0 7.68794l-27.615784 27.607784c-1.063992 1.063992-2.455981 1.599988-3.84797 1.599988M702.242514 673.806736a5.453957 5.453957 0 0 1-3.84797-1.591988l-17.703862-17.687861a5.453957 5.453957 0 0 1-0.008-7.70394 5.459957 5.459957 0 0 1 7.70394-0.008l17.711862 17.703861a5.435958 5.435958 0 0 1-3.85597 9.287928" fill="#474341" p-id="46457"></path><path d="M671.210756 642.782978a5.453957 5.453957 0 0 1-3.84797-1.591987l-29.319771-29.311771a5.427958 5.427958 0 0 1 0-7.68794 5.439958 5.439958 0 0 1 7.68794 0l29.327771 29.311771a5.435958 5.435958 0 0 1 0 7.69594 5.479957 5.479957 0 0 1-3.84797 1.583987M714.730416 643.638972h-29.567769c-3.015976 0-5.439958-2.431981-5.439957-5.439958s2.431981-5.439958 5.439957-5.439957h29.567769c3.007977 0 5.439958 2.431981 5.439958 5.439957s-2.431981 5.439958-5.439958 5.439958" fill="#474341" p-id="46458"></path><path d="M670.858759 643.638972H629.395083c-3.015976 0-5.439958-2.431981-5.439958-5.439958s2.431981-5.439958 5.439958-5.439957h41.463676c3.007977 0 5.439958 2.431981 5.439957 5.439957s-2.431981 5.439958-5.439957 5.439958M668.354778 653.694893c0.671995 10.071921 1.351989 20.143843 2.023985 30.215764 0.471996 7.007945 11.439911 7.055945 10.967914 0-0.671995-10.079921-1.351989-20.143843-2.023984-30.215764-0.463996-7.007945-11.439911-7.055945-10.967915 0M455.164444 752.118124c-10.671917 0-19.343849-8.679932-19.343849-19.343849 0-10.671917 8.679932-19.343849 19.343849-19.343849 10.671917 0 19.343849 8.679932 19.343849 19.343849 0.008 10.663917-8.671932 19.343849-19.343849 19.343849m0-27.719783c-4.615964 0-8.375935 3.759971-8.375935 8.375934s3.759971 8.375935 8.375935 8.375935 8.375935-3.759971 8.375935-8.375935-3.759971-8.375935-8.375935-8.375934M729.978297 570.94354c-10.455918 0-18.959852-8.503934-18.959852-18.959852s8.503934-18.959852 18.959852-18.959852 18.959852 8.503934 18.959852 18.959852-8.503934 18.959852-18.959852 18.959852m0-26.95179a8.009937 8.009937 0 0 0-7.991938 7.991938c0 4.407966 3.591972 7.991938 7.991938 7.991937s7.991938-3.583972 7.991938-7.991937c0-4.399966-3.591972-7.991938-7.991938-7.991938M641.890985 776.397934c-10.455918 0-18.959852-8.503934-18.959852-18.975851 0-10.455918 8.503934-18.959852 18.959852-18.959852 10.463918 0 18.967852 8.503934 18.967852 18.959852 0 10.471918-8.503934 18.975852-18.967852 18.975851m0-26.967789a8.009937 8.009937 0 0 0-7.991937 7.991938c0 4.415966 3.591972 7.999938 7.991937 7.999937 4.415966 0 7.999938-3.583972 7.999938-7.999937 0-4.399966-3.583972-7.991938-7.999938-7.991938M555.57966 812.533652c6.759947 0 6.767947-10.503918 0-10.503918-6.759947 0-6.767947 10.503918 0 10.503918M610.651229 700.318529v0.911993c0 15.007883 23.319818 15.031883 23.319818 0v-0.911993c0.008-15.007883-23.319818-15.031883-23.319818 0M392.852931 754.022109c6.759947 0 6.767947-10.503918 0-10.503918-6.759947 0-6.767947 10.503918 0 10.503918M503.468067 630.607073c6.759947 0 6.767947-10.503918 0-10.503918-6.759947 0-6.767947 10.503918 0 10.503918M327.045445 624.455121l0.911993-0.911992c10.631917-10.631917-5.855954-27.119788-16.495871-16.495872l-0.911993 0.911993c-10.623917 10.631917 5.863954 27.127788 16.495871 16.495871M773.16196 537.351802c6.759947 0 6.767947-10.503918 0-10.503918-6.759947 0.008-6.767947 10.503918 0 10.503918" fill="#474341" p-id="46459"></path><path d="M695.610566 462.08839c-10.175921-33.415739-37.007711-57.095554-68.607464-64.943493-0.551996-3.463973-1.25599-6.935946-2.303982-10.399918-12.295904-40.391684-55.00757-63.167507-95.399255-50.871603a76.139405 76.139405 0 0 0-21.255834 10.29592c-22.791822-47.127632-70.911446-79.711377-126.77501-79.711378-77.535394 0-140.406903 62.639511-140.862899 140.070906-34.247732 22.807822-51.087601 66.111484-38.487699 107.49516 7.959938 26.151796 26.143796 46.327638 48.807618 57.65555 0 0 23.367817 12.375903 50.727604 9.815923 0 0 311.581566 5.751955 330.469418 0 50.567605-15.37588 79.079382-68.847462 63.687503-119.407067" fill="#DFF1FA" p-id="46460"></path><path d="M533.475832 591.855376c-85.79933 0-199.598441-1.967985-232.150186-2.56798-28.455778 2.687979-53.191584-10.175921-54.231576-10.735916-25.5438-12.7599-44.279654-34.895727-52.607589-62.263513-12.7919-42.007672 2.903977-88.207311 38.223701-113.871111 2.62398-79.623378 68.423465-143.734877 148.550839-143.734877 54.551574 0 103.551191 29.095773 129.814986 76.479403a84.913337 84.913337 0 0 1 15.951876-6.727948c44.447653-13.511894 91.591284 11.623909 105.095179 56.047562 0.623995 2.007984 1.151991 4.111968 1.647987 6.44795 32.943743 9.935922 59.231537 35.919719 69.263459 68.887462 8.055937 26.439793 5.327958 54.431575-7.68794 78.815384-13.007898 24.38381-34.719729 42.25567-61.175522 50.295607-7.175944 2.215983-48.815619 2.927977-100.695214 2.927977m-232.742181-18.087859c120.183061 2.183983 314.757541 4.199967 328.94943 0.303998 22.447825-6.839947 40.90368-22.015828 51.959594-42.735666 11.047914-20.719838 13.359896-44.503652 6.527949-66.983477-9.071929-29.815767-32.631745-52.111593-63.031508-59.663534a7.791939 7.791939 0 0 1-5.807955-6.31195c-0.583995-3.727971-1.25599-6.695948-2.071983-9.343927-11.023914-36.247717-49.455614-56.695557-85.695331-45.727643a69.14546 69.14546 0 0 0-19.103851 9.271927 7.823939 7.823939 0 0 1-6.40795 1.119992 7.73794 7.73794 0 0 1-5.01596-4.135968c-22.463825-46.463637-68.367466-75.327412-119.775065-75.327411-72.95943 0-132.662964 59.359536-133.07896 132.342966a7.789939 7.789939 0 0 1-3.471973 6.423949c-32.02375 21.335833-46.559636 61.943516-35.351724 98.767229 7.071945 23.231819 22.99982 42.039672 44.84765 52.959586 0.359997 0.183999 21.935829 11.447911 46.527637 9.039929" fill="#474341" p-id="46461"></path><path d="M575.907501 548.399716h37.711705c7.055945 0 7.071945-10.967914 0-10.967915h-37.711705c-7.055945 0-7.071945 10.967914 0 10.967915M462.772385 548.399716h90.511292c7.055945 0 7.071945-10.967914 0-10.967915h-90.511292c-7.055945 0-7.071945 10.967914 0 10.967915" fill="#0F95BC" p-id="46462"></path></svg>