<?xml version="1.0" standalone="no"?><!DOCTYPE svg PUBLIC "-//W3C//DTD SVG 1.1//EN" "http://www.w3.org/Graphics/SVG/1.1/DTD/svg11.dtd"><svg t="1753756823200" class="icon" viewBox="0 0 1024 1024" version="1.1" xmlns="http://www.w3.org/2000/svg" p-id="14167" xmlns:xlink="http://www.w3.org/1999/xlink" width="32" height="32"><path d="M791.3 1024H232.7C104.7 1024 0 919.3 0 791.3V232.8C0 104.7 104.7 0 232.7 0h558.5c128 0 232.7 104.7 232.7 232.7v558.5c0.1 128.1-104.6 232.8-232.6 232.8z" fill="#3271fd" p-id="14168" data-spm-anchor-id="a313x.search_index.0.i10.24253a81m77sd3" class="selected"></path><path d="M807.8 508.8V712c0 40.8-33.1 73.9-73.9 73.9H290.4c-40.8 0-73.9-33.1-73.9-73.9V508.8h224.3c-1.6 5.9-2.6 12.1-2.6 18.5 0 40.8 33.1 73.9 73.9 73.9 40.8 0 73.9-33.1 73.9-73.9 0-6.4-1-12.6-2.6-18.5h224.4z m-591.3-37v-92.4c0-40.8 33.1-73.9 73.9-73.9h110.9v-37c0-20.4 16.5-37 37-37h147.8c20.4 0 37 16.5 37 37v37H734c40.8 0 73.9 33.1 73.9 73.9v92.4H216.5z m369.6-184.7c0-10.2-8.3-18.5-18.5-18.5H456.7c-10.2 0-18.5 8.3-18.5 18.5v18.5H586v-18.5z" fill="#ffffff" p-id="14169" data-spm-anchor-id="a313x.search_index.0.i9.24253a81m77sd3" class=""></path></svg>