<?xml version="1.0" standalone="no"?><!DOCTYPE svg PUBLIC "-//W3C//DTD SVG 1.1//EN" "http://www.w3.org/Graphics/SVG/1.1/DTD/svg11.dtd"><svg t="1706240825084" class="icon" viewBox="0 0 1024 1024" version="1.1" xmlns="http://www.w3.org/2000/svg" p-id="22071" width="38" height="38" xmlns:xlink="http://www.w3.org/1999/xlink"><path d="M916.8 866.6l-35.8-2.1c5.3-43.9-24.9-84.7-69-92-0.9-0.1-1.7-0.2-2.6-0.4-222.2-46.4-338.3-210-327.5-465.8 2-47.9 6.7-83.2 23.3-128.4 0.3-0.8 9.2-20.7 10.6-29.2 6.3-38.2-19.5-74.3-57.7-80.6-20.9-3.5-40.4 4.6-58.7 17.4-89 62.1-109.4 176.8-122.4 292.9C246.8 648 440 895.3 674.5 934.2c45.3 7.5 90.1 8.5 133.5 3.6v-0.5c22.8-2.7 43.3-14.7 56.8-32.8l45.2 9.9c11.4 2.5 22.5-5.2 24-16.8l1.2-8.4c1.8-11.5-6.8-21.9-18.4-22.6z" fill="#FFF3D7" p-id="22072"></path><path d="M917 866.3l-35.8-2.1c5.3-43.9-24.9-84.7-69-92-0.9-0.1-1.7-0.2-2.6-0.4-222.2-46.4-338.3-210-327.5-465.8 2-47.9 6.7-83.2 23.3-128.4 0.3-0.8 9.2-20.7 10.6-29.2 5-30.1-10-58.8-35.2-72.8C428.7 183 361.4 414.1 450.3 590 568.7 824 730.5 832.1 862 908c1.1-1.3 2.2-2.6 3.2-4l45.2 9.9c11.4 2.5 22.5-5.2 24-16.8l1.2-8.4c1.6-11.2-7-21.7-18.6-22.4z" fill="#E7E0CE" p-id="22073"></path><path d="M754.3 944.4c-26.8 0-53.6-2.2-80.3-6.6-246.5-41-430-297.3-400.5-559.8 12.9-114.7 33-232 123.9-295.3 22-15.3 42-21.2 61.3-18 40.1 6.7 67.3 44.7 60.6 84.7-0.9 5.2-4.2 14.6-10.3 28.7l-0.5 1.1c-16.7 45.6-21.1 81.2-23 127.2-10.7 252 104.6 416.2 324.6 462.1 1 0.1 1.7 0.2 2.4 0.3 44.6 7.4 75.7 47.5 72.3 92.1L917 863c6.5 0.4 12.7 3.5 16.8 8.6 4.2 5.1 6 11.7 5.1 18.2l-1.2 8.4c-0.9 6.5-4.5 12.3-9.9 16.1-5.4 3.7-12.1 5.1-18.5 3.7l-43-9.4c-13.6 17.1-33.3 28.6-54.8 31.9v0.1l-3.1 0.9c-17.9 1.9-36 2.9-54.1 2.9zM448.2 71c-14.6 0-29.7 5.7-46.7 17.5-88.4 61.5-108.1 177.1-120.8 290.2-29 258.8 151.7 511.6 394.6 551.9 43.1 7.1 86.7 8.4 129.6 3.9l2.9-0.8c21.5-2.6 41.3-14 54.3-31.4l1.4-1.9 47.5 10.4c4.5 1 9.1 0.1 12.9-2.6 3.8-2.6 6.2-6.6 6.9-11.2l1.2-8.4c0.6-4.6-0.6-9.1-3.6-12.6-2.9-3.6-7.1-5.7-11.7-6l-39.7-2.3 0.5-3.8c5.1-42.4-23.9-81-66-88l-1.9-0.3C584.9 728.7 467.6 562 478.4 306c2-46.7 6.5-82.9 23.5-129.4l0.6-1.5c7.1-16.7 9.3-23.9 9.8-27.1 6-36.2-18.5-70.5-54.7-76.5-3.2-0.2-6.3-0.5-9.4-0.5z" fill="#211919" p-id="22074"></path><path d="M451.4 769c47.1 49.3 24.9 55.2 18.9 73.1-6.7 19.9-10.1 22.9-16.6 49.2-6.3 25.6-1.2 67.8-35.5 67.7-30.1-0.1-88.3-13.1-74.9-46.1 14.1-34.7 56.2-11.1 64.9-14.5 8.7-3.3-15.9-86.2-1.2-118 8.2-17.8 25.3-31.4 44.4-11.4z" fill="#FFF3D7" p-id="22075"></path><path d="M417 922.9c-11 8.5-45.6-3.1-72.8-14.4-0.3 0.6-0.6 1.2-0.8 1.8-13.4 33 44.8 46 74.9 46.1 34.3 0.1 29.2-42.1 35.5-67.7 6.5-26.3 9.9-29.3 16.6-49.2 5.9-17.4 26.9-23.4-15.1-69-9 54.3-25.2 142.3-38.3 152.4z" fill="#E7E0CE" p-id="22076"></path><path d="M418.3 960.7h-0.1c-22.5 0-63.1-7.4-76.2-26.8-4.9-7.3-5.6-15.4-2-24.2 11.4-28.1 39.1-21.8 55.7-18.2 3.7 0.8 8.5 2 10.6 1.8 1.1-3.9-1-19.1-2.7-31.5-4-29-9-65.1 0.1-84.8 6-13 15.1-21.4 25-23.1 8.7-1.4 17.1 2.2 25.3 10.7 36.8 38.6 33.3 52.4 24.2 67.8-1.7 3-3.4 5.7-4.5 8.9-2.4 7.2-4.4 12.2-6.3 16.9-3.3 8.3-6.1 15.4-10.2 32.1-1.4 5.7-2.2 12.3-3.1 19.3-2.8 22.8-6.3 51.1-35.8 51.1z m-45.7-65.2c-11.3 0-20.6 3.9-25.9 16.9-2.6 6.5-2.2 12.3 1.3 17.5 10.9 16.2 47.7 23.6 70.3 23.7h0.1c21.5 0 25.3-17.7 28.6-44.8 0.9-7.2 1.7-14 3.3-20.2 4.2-17.1 7.2-24.5 10.5-33 1.8-4.6 3.8-9.5 6.1-16.5 1.3-3.9 3.2-7.1 5.1-10.3 6.8-11.5 12.7-21.5-23.2-59.2-6.4-6.7-12.8-9.6-18.9-8.6-7.4 1.2-14.7 8.3-19.6 19-8.2 17.8-3.2 54.2 0.4 80.8 3.8 27.2 4.8 36.8-1.2 39.1-3.4 1.3-8.4 0.2-15.4-1.4-7.5-1.6-14.8-3-21.5-3z" fill="#211919" p-id="22077"></path><path d="M554.9 806.8c38 36.4 21.2 41.7 17.1 55.8-4.5 15.6-7 18.1-11.1 38.6-4 20 1.4 52.4-25 53.5-23.2 1-68.6-7.1-59.4-33 9.6-27.3 43-10.5 49.6-13.4 6.6-2.9-15.3-66-5-91.1 5.6-14 18.3-25.1 33.8-10.4z" fill="#E7E0CE" p-id="22078"></path><path d="M532.1 958.3c-18 0-46.3-4.7-56.5-18.5-4.1-5.6-5-12.3-2.5-19.4 8-22.7 31-18.7 43.3-16.5 2.5 0.4 5.7 1 7.4 1 0.3-3.7-1.6-14.5-3.3-23.3-4.1-22.4-9.2-50.2-2.8-65.9 4.3-10.5 11.3-17.5 19.1-19.2 4.8-1 12.2-0.5 20.6 7.6 30.2 28.9 27.8 40 21.2 52.5-1.2 2.3-2.4 4.5-3.1 6.9-1.6 5.6-3 9.6-4.3 13.3-2.2 6.5-4.2 12-6.8 25-0.9 4.4-1.3 9.5-1.7 14.9-1.4 18-3.2 40.4-26.7 41.4-1.3 0.2-2.6 0.2-3.9 0.2z m-31.7-48.9c-9.2 0-16.9 3-20.6 13.4-1.7 4.9-1.2 9 1.5 12.7 8.7 11.8 37.6 16.2 54.4 15.5 16-0.7 18.2-14.2 19.8-34.8 0.4-5.6 0.9-10.9 1.8-15.8 2.7-13.4 4.7-19.2 7-25.9 1.2-3.6 2.6-7.4 4.2-12.9 0.9-3.1 2.3-5.7 3.6-8.3 4.7-8.9 8.8-16.5-19.8-43.9-5-4.8-9.7-6.7-14.2-5.8-5.4 1.1-10.6 6.7-13.9 14.8-5.7 13.8-0.5 41.6 3.2 61.9 3.7 20.3 5.3 28.8 0 31.1-2.8 1.2-6.8 0.5-12.4-0.5-5.1-0.8-10.1-1.5-14.6-1.5z" fill="#211919" p-id="22079"></path><path d="M485.3 306.4m-58.8 0a58.8 58.8 0 1 0 117.6 0 58.8 58.8 0 1 0-117.6 0Z" fill="#FFFFFF" p-id="22080"></path><path d="M811.1 780.4c-0.8-0.2-1.7-0.3-2.5-0.4C659.8 746.6 557 657.7 514.9 527.8c-1.4-4.2-4.1-8.5-5.3-12.9-30.3 0.9-70 4-98.5 7.7 56 319.4 464 368.5 467 354.5 11.8-56.6-21.8-88.5-67-96.7z" fill="#FFC200" p-id="22081"></path><path d="M295.9 309.6m-58.8 0a58.8 58.8 0 1 0 117.6 0 58.8 58.8 0 1 0-117.6 0Z" fill="#FFFFFF" p-id="22082"></path><path d="M295.9 306.4m-6.5 0a6.5 6.5 0 1 0 13 0 6.5 6.5 0 1 0-13 0Z" fill="#211919" p-id="22083"></path><path d="M295.9 316.5c-5.6 0-10.1-4.5-10.1-10.1s4.5-10.1 10.1-10.1 10.1 4.5 10.1 10.1-4.5 10.1-10.1 10.1z m0-13c-1.6 0-2.9 1.3-2.9 2.9 0 1.6 1.3 2.9 2.9 2.9 1.6 0 2.9-1.3 2.9-2.9 0-1.6-1.3-2.9-2.9-2.9z" fill="#211919" p-id="22084"></path><path d="M485.3 306.4m-6.5 0a6.5 6.5 0 1 0 13 0 6.5 6.5 0 1 0-13 0Z" fill="#211919" p-id="22085"></path><path d="M485.3 316.5c-5.6 0-10.1-4.5-10.1-10.1s4.5-10.1 10.1-10.1 10.1 4.5 10.1 10.1-4.5 10.1-10.1 10.1z m0-13c-1.6 0-2.9 1.3-2.9 2.9 0 1.6 1.3 2.9 2.9 2.9 1.6 0 2.9-1.3 2.9-2.9 0-1.6-1.3-2.9-2.9-2.9z" fill="#211919" p-id="22086"></path><path d="M365.4 411.2a21.3 39.5 0 1 0 42.6 0 21.3 39.5 0 1 0-42.6 0Z" fill="#ED4A5E" p-id="22087"></path><path d="M386.7 454.3c-14 0-24.9-18.9-24.9-43.1 0-24.2 10.9-43.1 24.9-43.1s24.9 18.9 24.9 43.1c0 24.2-10.9 43.1-24.9 43.1z m0-79c-8.6 0-17.7 14.4-17.7 35.9s9.2 35.9 17.7 35.9c8.6 0 17.7-14.4 17.7-35.9s-9.1-35.9-17.7-35.9z" fill="#211919" p-id="22088"></path><path d="M919.2 871.6l-35.8-2.1c5.3-44-24.9-84.7-69-92-0.9-0.1-1.7-0.2-2.6-0.4-149.2-31.1-255-120.2-299.1-249.4-1.4-4.2-2.8-8.5-4.1-12.8-76.1 3.4-157.3 18.7-219.4 38.4 1.9 8.1 3.9 16.1 6.2 24.1C347.8 763.1 500.8 910 677.1 939.2c45.3 7.5 90.1 8.4 133.5 3.5 22.7-2.7 43.3-15.3 56.8-33.3l45.2 9.9c11.4 2.5 22.5-5.2 24-16.8l1.2-8.4c1.6-11.3-6.9-21.8-18.6-22.5z" fill="#FEF12F" p-id="22089"></path><path d="M756.6 949.4c-26.7 0-53.5-2.2-80-6.6C499.8 913.5 345.2 767.1 292 578.4c-2.3-8-4.3-16.1-6.2-24.3l-0.7-3.2 3.2-1c66-20.9 148.4-35.3 220.3-38.6l2.8-0.1 0.8 2.7c1.3 4.3 2.6 8.5 4 12.7C560 655.2 665.3 743 812.6 773.7l2.4 0.3c44.7 7.4 75.8 47.5 72.4 92.2l32.1 1.9c6.5 0.4 12.7 3.5 16.8 8.6 4.2 5.1 6 11.7 5.1 18.2l-1.2 8.4c-0.9 6.5-4.5 12.4-9.9 16.1-5.4 3.7-12.1 5.1-18.5 3.7l-43-9.4c-14.4 18.2-35.4 30.2-57.8 32.8-18 1.9-36.2 2.9-54.4 2.9zM293.5 555.8c1.6 7 3.4 13.8 5.4 20.7 52.5 186 204.7 330.4 378.8 359.2 44 7.3 88.6 8.4 132.5 3.5 21.2-2.5 41-14.1 54.3-31.9l1.4-1.9 47.5 10.4c4.5 1 9.1 0.1 12.9-2.6 3.8-2.6 6.2-6.6 6.9-11.2l1.2-8.4c0.6-4.6-0.6-9.1-3.6-12.6-2.9-3.6-7.1-5.7-11.7-5.9l-39.7-2.3 0.5-3.8c5.1-42.4-23.9-81-66-88l-2.7-0.4c-149.8-31.2-257-120.6-301.8-251.8l-3.3-10.2c-69.6 3.5-148.5 17.3-212.6 37.2z" fill="#211919" p-id="22090"></path><path d="M919.2 871.6l-35.8-2.1c5.3-44-24.9-84.7-69-92-0.9-0.1-1.7-0.2-2.6-0.4-149.2-31.1-255-120.2-299.1-249.4-1.4-4.2-2.8-8.5-4.1-12.8-36.3 1.6-73.7 6-109.7 12.2 47.5 113.2 167.8 296.4 463.3 388.5 1.8-2 3.5-4.1 5.2-6.2l45.2 9.9c11.4 2.5 22.5-5.2 24-16.8l1.2-8.4c1.6-11.3-6.9-21.8-18.6-22.5z" fill="#FFC200" p-id="22091"></path><path d="M756.5 946.9c-26.7 0-53.5-2.2-80-6.6C499.7 911.1 345.1 764.7 291.9 576c-2.3-8-4.3-16.1-6.2-24.3l-0.8-3.2 3.2-1c66-20.9 148.4-35.3 220.3-38.6l2.8-0.1 0.8 2.7c1.3 4.3 2.6 8.5 4 12.7 43.9 128.6 149.2 216.4 296.4 247l2.4 0.3c44.7 7.4 75.8 47.5 72.4 92.2l32.1 1.9c6.5 0.4 12.7 3.5 16.8 8.6 4.1 5.1 6 11.7 5.1 18.2l-1.2 8.4c-0.9 6.5-4.5 12.4-9.9 16.1-5.4 3.7-12.1 5.1-18.5 3.7l-43-9.4c-14.4 18.3-35.4 30.2-57.8 32.8-17.8 1.9-36 2.9-54.3 2.9z m-463-393.6c1.6 6.9 3.4 13.9 5.4 20.7 52.5 186 204.7 330.4 378.8 359.2 44 7.3 88.6 8.5 132.5 3.5 21.2-2.5 41-14.1 54.3-31.9l1.4-1.9 47.5 10.4c4.5 1 9.1 0.1 12.9-2.6 3.8-2.6 6.2-6.6 6.9-11.2l1.2-8.4c0.6-4.6-0.6-9-3.6-12.6-2.9-3.6-7.1-5.7-11.7-6l-39.7-2.3 0.5-3.8c5.1-42.4-23.9-81-66-88l-2-0.3C661.3 747 554.1 657.6 509.3 526.5l-3.3-10.2c-69.5 3.3-148.4 17.1-212.5 37z" fill="#211919" p-id="22092"></path><path d="M409.2 530.9c-1.4-1.2-1.6-3.4-0.3-4.8 9.4-10.6 52.1-47.7 174.2-18 102.5 21.2 134.5 8.1 144.4-1.1 1.5-1.4 3.8-0.1 3.4 2-4 25.6-24 99.2-121.9 97.9-106.8-1.5-185.3-63.7-199.8-76z" fill="#FEF12F" p-id="22093"></path><path d="M611.6 610.4h-2.7c-107.9-1.5-187.3-64.2-202.1-76.8-1.4-1.2-2.3-2.9-2.4-4.8-0.1-1.9 0.5-3.7 1.7-5.1 10.6-12.1 54.8-49.1 177.7-19.1 103.9 21.5 133.3 7 141.2-0.3 1.8-1.6 4.3-2 6.5-0.9 2.2 1.2 3.3 3.5 3 6-3.7 23.9-23.5 101-122.9 101z m-199.9-82.1c15 12.7 92.4 73.5 197.3 74.9h2.6c87.3 0 109.5-60.8 115.1-91.1-13.6 9.4-49.7 19.1-144.4-0.5-118.6-28.9-160.4 5.2-170.6 16.7z" fill="#211919" p-id="22094"></path><path d="M407.2 531.1c1-1.5 0.6-3.7-1-4.7-11.8-7.8-62.9-32.2-172.7 29C140.4 603 106 598.9 94 592.7c-1.8-0.9-3.6 0.9-2.8 2.8 10.6 23.6 49.5 89.3 143.6 62 102.5-29.9 161.7-110.7 172.4-126.4z" fill="#FEF12F" p-id="22095"></path><path d="M192.2 667.5c-66.5 0-96-52.1-104.3-70.6-1-2.3-0.5-4.9 1.3-6.6 1.8-1.7 4.3-2 6.5-0.9 9.5 4.9 41.7 11.1 136.3-37.3 110.4-61.5 162.9-37.6 176.3-28.8 1.6 1 2.7 2.6 3 4.5 0.4 1.9 0 3.7-1.1 5.3-11 16.1-70.8 97.7-174.4 127.8-16 4.6-30.5 6.6-43.6 6.6z m-96.1-70c13.6 28 51.8 81.5 137.7 56.5 100.9-29.3 159.4-108.7 170.3-124.8-12.6-8.2-62-30.2-168.8 29.3-86.3 44.1-123.6 44.4-139.2 39z" fill="#211919" p-id="22096"></path><path d="M599.8 563.9c-77.3 0-151.2-28-191.8-35.7 24.8 19.4 84.9 73 202 78.6 97.2 4.6 116.8-71.8 120.9-97.9-25.9 28.4-66.4 55-131.1 55z" fill="#FFC200" p-id="22097"></path><path d="M611.6 610.4h-2.7c-107.9-1.5-187.3-64.2-202.1-76.8-1.4-1.2-2.3-2.9-2.4-4.8-0.1-1.9 0.5-3.7 1.7-5.1 10.6-12.1 54.8-49.1 177.7-19.1 103.9 21.5 133.3 7 141.2-0.3 1.8-1.6 4.3-2 6.5-0.9 2.2 1.2 3.3 3.5 3 6-3.7 23.9-23.5 101-122.9 101z m-199.9-82.1c15 12.7 92.4 73.5 197.3 74.9h2.6c87.3 0 109.5-60.8 115.1-91.1-13.6 9.4-49.7 19.1-144.4-0.5-118.6-28.9-160.4 5.2-170.6 16.7z" fill="#211919" p-id="22098"></path><path d="M407.2 531.1c1-1.5 0.6-3.7-1-4.7-1-0.6-2.2-1.4-3.7-2.2-37.8 24.3-97.1 59.3-158.1 82.8-59.1 22.8-115.7 5.2-152.9-13.7-0.5 0.6-0.6 1.4-0.3 2.3 10.6 23.6 49.5 89.3 143.6 62 102.5-30 161.7-110.8 172.4-126.5z" fill="#FEDF00" p-id="22099"></path><path d="M192.2 667.5c-66.5 0-96-52.1-104.3-70.6-1-2.3-0.5-4.9 1.3-6.6 1.8-1.7 4.3-2 6.5-0.9 9.5 4.9 41.7 11.1 136.3-37.3 110.4-61.5 162.9-37.6 176.3-28.8 1.6 1 2.7 2.6 3 4.5 0.4 1.9 0 3.7-1.1 5.3-11 16.1-70.8 97.7-174.4 127.8-16 4.6-30.5 6.6-43.6 6.6z m-96.1-70c13.6 28 51.8 81.5 137.7 56.5 100.9-29.3 159.4-108.7 170.3-124.8-12.6-8.2-62-30.2-168.8 29.3-86.3 44.1-123.6 44.4-139.2 39z" fill="#211919" p-id="22100"></path><path d="M494.9 248c-0.1 0-0.3 0-0.4-0.1 6.3 14.5 9.9 31.2 9.9 49.1 0 26.2-7.8 50-20.4 67.7 28.8 0.6 54.4-19.9 59.2-49.1 5.4-32-16.3-62.2-48.3-67.6z" fill="#E7E0CE" p-id="22101"></path><path d="M485.4 368.8c-3.4 0-6.9-0.3-10.3-0.9-16.4-2.7-30.8-11.7-40.5-25.2-9.7-13.6-13.5-30.1-10.8-46.5 2.7-16.4 11.7-30.8 25.2-40.5 13.6-9.7 30.1-13.5 46.5-10.8 16.4 2.7 30.8 11.7 40.5 25.2 9.7 13.6 13.5 30.1 10.8 46.5-2.7 16.4-11.7 30.8-25.2 40.5-10.7 7.7-23.3 11.7-36.2 11.7z m-0.2-117.6c-11.4 0-22.5 3.5-32 10.3-12 8.6-19.9 21.3-22.3 35.8-2.4 14.5 1 29.1 9.5 41.1 8.6 12 21.3 19.9 35.8 22.3 14.6 2.4 29.1-1 41.1-9.6s19.9-21.3 22.3-35.8-1-29.2-9.6-41.1c-8.6-12-21.3-19.9-35.8-22.3-2.9-0.5-6-0.7-9-0.7z" fill="#211919" p-id="22102"></path><path d="M305.5 251.3c-0.1 0-0.3 0-0.4-0.1 6.3 14.5 9.9 31.2 9.9 49.1 0 26.2-7.8 50-20.4 67.7 28.8 0.6 54.4-19.9 59.2-49.1 5.4-32-16.2-62.3-48.3-67.6z" fill="#E7E0CE" p-id="22103"></path><path d="M295.9 372c-3.4 0-6.8-0.3-10.2-0.8-16.4-2.7-30.8-11.7-40.5-25.2-9.7-13.6-13.5-30.1-10.8-46.5 5.6-33.9 37.8-56.9 71.7-51.3 33.9 5.6 56.9 37.8 51.3 71.7-5 30.4-31.5 52.1-61.5 52.1z m0-117.5c-26.5 0-49.9 19.2-54.4 46.1-2.4 14.5 1 29.2 9.6 41.1 8.6 12 21.3 19.9 35.8 22.3 30 5 58.5-15.4 63.5-45.4S335 260.1 305 255.1c-3.1-0.4-6.1-0.6-9.1-0.6z" fill="#211919" p-id="22104"></path><path d="M365.4 411.2c0 21.8 9.5 39.5 21.3 39.5S408 433 408 411.2c0-3.6-14.1-7.5-21.3-7.5-7.2 0-21.3 3.9-21.3 7.5z" fill="#CC3B54" p-id="22105"></path><path d="M386.7 454.3c-14 0-24.9-18.9-24.9-43.1 0-24.2 10.9-43.1 24.9-43.1s24.9 18.9 24.9 43.1c0 24.2-10.9 43.1-24.9 43.1z m0-79c-8.6 0-17.7 14.4-17.7 35.9s9.2 35.9 17.7 35.9c8.6 0 17.7-14.4 17.7-35.9s-9.1-35.9-17.7-35.9z" fill="#211919" p-id="22106"></path><path d="M410.7 707.5c10.8 15 22.9 29.3 36.1 40.7" fill="#FEF12F" p-id="22107"></path><path d="M446.9 755.3c-1.7 0-3.3-0.6-4.7-1.7-12.4-10.7-25-24.8-37.3-41.9-2.3-3.2-1.6-7.7 1.6-10s7.7-1.6 10 1.6c11.6 16.1 23.4 29.4 35 39.4 3 2.6 3.3 7.1 0.8 10.1-1.4 1.7-3.4 2.5-5.4 2.5z" fill="#FFFFFF" p-id="22108"></path><path d="M358.8 612.5s14 35.5 37.3 73" fill="#FEF12F" p-id="22109"></path><path d="M396.1 692.7c-2.4 0-4.8-1.2-6.1-3.4-23.3-37.7-37.3-72.7-37.9-74.2-1.5-3.7 0.3-7.9 4-9.3 3.7-1.5 7.9 0.3 9.3 4 0.1 0.4 14.1 35.3 36.7 71.9 2.1 3.4 1 7.8-2.3 9.9-1.1 0.7-2.4 1.1-3.7 1.1z" fill="#FFFFFF" p-id="22110"></path><path d="M283.4 393.9a12.5 9.8 0 1 0 25 0 12.5 9.8 0 1 0-25 0Z" fill="#D13F7B" p-id="22111"></path><path d="M445.5 395a12.5 9.8 0 1 0 25 0 12.5 9.8 0 1 0-25 0Z" fill="#D13F7B" p-id="22112"></path></svg>