<?xml version="1.0" standalone="no"?><!DOCTYPE svg PUBLIC "-//W3C//DTD SVG 1.1//EN" "http://www.w3.org/Graphics/SVG/1.1/DTD/svg11.dtd"><svg t="1702535091271" class="icon" viewBox="0 0 1024 1024" version="1.1" xmlns="http://www.w3.org/2000/svg" p-id="4065" width="32" height="32" xmlns:xlink="http://www.w3.org/1999/xlink"><path d="M512 944c-194.56 0-350.08-240-335.04-427.52C188.96 696.48 334.24 896 512 896s323.04-199.52 335.04-379.52C862.08 704 706.4 944 512 944z" fill="#69CC00" p-id="4066"></path><path d="M770.4 240l-42.4 42.72A32 32 0 0 1 688 288a333.44 333.44 0 0 0-352 0 32 32 0 0 1-39.36-4.48L253.6 240c4.64-17.44 4.8-36.8-20.96-62.08a61.12 61.12 0 0 0-102.24 28.64c-16-54.72 54.88-108 102.24-60.64 25.76 25.28 25.6 44.64 20.96 62.08l42.4 42.4A32 32 0 0 0 336 256a333.44 333.44 0 0 1 352 0 32 32 0 0 0 39.36-4.48l41.92-41.92a58.56 58.56 0 0 0 1.12 30.4zM893.92 208a64 64 0 0 0-123.68 0c-21.92-75.52 92.64-113.12 121.12-39.52a64 64 0 0 1 2.56 39.52z" fill="#C5EE09" p-id="4067"></path><path d="M778.4 290.88a32 32 0 0 0-2.4 42.56c52.32 66.24 75.2 151.52 69.6 199.04C826.4 708 684.48 896 512 896S197.6 708 178.4 532.48c-5.6-46.88 16-131.84 69.6-199.04a32 32 0 0 0-2.4-42.56L208 253.6c-17.44 4.64-36.8 4.8-62.08-20.96a62.08 62.08 0 0 1-16-25.76 61.12 61.12 0 0 1 102.24-28.64c25.76 25.28 25.6 44.64 20.96 62.08l42.4 42.4A32 32 0 0 0 336 288a333.44 333.44 0 0 1 352 0 32 32 0 0 0 39.36-4.48L770.4 240a53.12 53.12 0 0 1 0-32 64 64 0 0 1 123.68 0A64 64 0 0 1 832 256c-23.68 0-4.48-14.24-53.6 34.88z" fill="#84E507" p-id="4068"></path><path d="M456.96 727.04c-37.44 37.44-132 3.68-169.44-33.76a151.84 151.84 0 0 1-39.2-126.72c16.96-75.84 128-56.16 174.72-8.96 37.12 37.12 71.52 131.84 33.92 169.44zM736 693.28c-54.4 54.4-208 92.8-183.2-39.68a199.84 199.84 0 0 1 48-96c37.44-37.44 120.8-60 158.24-22.56S773.12 656 736 693.28z" fill="#FDA736" p-id="4069"></path><path d="M470.72 653.76c-18.72 72.64-137.92 36.8-183.2-8.48a156.32 156.32 0 0 1-39.2-78.72c16.96-75.84 128-56.16 174.72-8.96a202.08 202.08 0 0 1 47.68 96.16zM774.72 566.56A156.32 156.32 0 0 1 736 645.28c-46.24 46.24-164.48 80.8-183.2 8.32a199.84 199.84 0 0 1 48-96c46.4-47.36 156.96-67.04 173.92 8.96z" fill="#FED370" p-id="4070"></path><path d="M169.6 459.52a16 16 0 0 1 31.04 7.36C147.84 688 359.68 998.56 592 913.6a16 16 0 0 1 10.08 30.4C347.2 1037.12 109.76 710.24 169.6 459.52zM653.76 916.32a16 16 0 0 1-8.64-29.44c160-101.28 260.64-363.2 118.24-544a48 48 0 0 1 3.68-64C823.68 223.04 802.88 240 832 240a48 48 0 1 0-29.92-85.6 47.04 47.04 0 0 0-16 49.6c3.36 11.84-2.08 13.76-46.4 58.08a48 48 0 0 1-59.2 6.72 317.6 317.6 0 0 0-336 0 48 48 0 0 1-59.2-6.72c-42.24-42.24-49.76-45.76-46.56-57.92s4.64-25.6-16-46.56c-41.92-41.76-105.6 21.92-64 64 36 36.8 46.4 5.44 62.08 20.96l37.28 37.28a48 48 0 0 1 3.68 64 326.88 326.88 0 0 0-40.48 66.24 16 16 0 0 1-29.12-13.12c48-103.84 74.56-62.88 12.16-125.44A84.64 84.64 0 0 1 112 187.68a77.6 77.6 0 0 1 131.84-52.8c27.2 26.88 30.08 49.92 27.04 68.32l36.48 36.8a16 16 0 0 0 19.52 2.24 349.92 349.92 0 0 1 370.24 0 16 16 0 0 0 19.52-2.24c44.48-45.12 35.36-32 35.36-48a80 80 0 1 1 142.56 49.92 77.28 77.28 0 0 1-73.76 29.12l-31.04 31.2a16 16 0 0 0-1.12 21.28A347.68 347.68 0 0 1 864 540.64c0 209.6-175.04 375.68-210.24 375.68z" fill="#35214C" p-id="4071"></path><path d="M409.92 759.2A214.88 214.88 0 0 1 276.16 704c-40.96-40.32-68.16-134.4-22.56-180.32 22.72-22.72 60.32-29.6 103.2-19.04a16 16 0 0 1-7.68 31.04c-114.72-28.32-100 96-50.24 146.24 33.12 33.28 118.24 62.4 146.72 33.76 32-32-5.12-126.88-44.96-156.16a16 16 0 0 1 18.88-25.92c72.16 52.96 115.04 225.6-9.6 225.6zM554.72 738.4c-46.4-46.56-5.92-152.48 33.76-192 43.04-43.04 136.16-67.36 180.96-22.56s18.4 139.84-22.56 180.16a173.44 173.44 0 0 1-40.16 28.64 16 16 0 0 1-15.04-28.16 136.8 136.8 0 0 0 32-23.2c33.92-33.76 51.2-107.04 22.56-135.52s-104.32-8.8-135.52 22.56c-36.8 36.8-92.96 178.4 26.08 156a16 16 0 0 1 6.08 32c-31.04 6.08-65.6 4.48-88.16-17.92zM455.36 817.92a16 16 0 0 1 22.72 0 49.28 49.28 0 0 0 67.84 0 16 16 0 0 1 22.72 22.72c-53.28 53.12-137.92 2.08-113.28-22.72z" fill="#35214C" p-id="4072"></path></svg>