<?xml version="1.0" standalone="no"?><!DOCTYPE svg PUBLIC "-//W3C//DTD SVG 1.1//EN" "http://www.w3.org/Graphics/SVG/1.1/DTD/svg11.dtd"><svg t="1706669553072" class="icon" viewBox="0 0 1024 1024" version="1.1" xmlns="http://www.w3.org/2000/svg" p-id="1986" width="32" height="32" xmlns:xlink="http://www.w3.org/1999/xlink"><path d="M419.264 900.618667l60.373333-211.68a10.666667 10.666667 0 0 1 4.416-6.005334l31.338667-20.501333a10.666667 10.666667 0 0 1 16.490667 9.386667l-10.56 239.946666a10.421333 10.421333 0 0 1-9.482667 9.994667c-43.093333 3.594667-72.970667-3.605333-87.690667-9.898667-4.341333-1.845333-6.176-6.709333-4.885333-11.242666z" fill="#CD9220" p-id="1987"></path><path d="M483.84 682.613333l-11.466667-17.525333 31.338667-20.512 11.68 17.856-31.338667 20.501333a10.666667 10.666667 0 0 0-4.416 6.005334l-60.373333 211.68c-1.28 4.533333 0.554667 9.386667 4.885333 11.242666l-8.384 19.626667c-15.893333-6.794667-20.725333-23.701333-17.013333-36.714667l60.373333-211.690666a32 32 0 0 1 13.248-17.994667l11.466667 17.525333z m-59.690667 229.248l-8.384 19.626667c18.346667 7.829333 51.754667 15.370667 97.856 11.52 16.298667-1.354667 28.32-14.72 29.013334-30.304l10.56-239.946667c1.152-26.048-27.669333-42.453333-49.493334-28.181333l11.690667 17.856a10.666667 10.666667 0 0 1 16.490667 9.386667l-10.56 239.946666a10.421333 10.421333 0 0 1-9.482667 9.994667c-43.093333 3.594667-72.970667-3.605333-87.690667-9.898667z" fill="#915117" p-id="1988"></path><path d="M478.730667 922.496c9.973333 0.426667 21.013333 0.266667 33.12-0.746667a10.421333 10.421333 0 0 0 9.472-9.984l10.56-239.946666a10.666667 10.666667 0 0 0-16.490667-9.386667l-6.037333 3.946667c0.832 1.578667 1.28 3.424 1.194666 5.44l-10.56 239.946666a10.421333 10.421333 0 0 1-9.482666 9.994667c-4.042667 0.330667-7.968 0.576-11.776 0.736z" fill="#BA8111" p-id="1989"></path><path d="M458.218667 764.010667l2.453333-0.010667c23.466667 0 45.941333 4.053333 66.645333 11.445333l4.565334-103.626666a10.666667 10.666667 0 0 0-16.490667-9.386667l-31.338667 20.501333a10.666667 10.666667 0 0 0-4.416 6.005334l-21.418666 75.072z" fill="#995E05" p-id="1990"></path><path d="M195.605333 352.725333l201.472-21.813333a10.666667 10.666667 0 0 0 7.498667-4.352l74.08-102.314667 66.304-91.562666a10.666667 10.666667 0 0 1 18.272 1.685333l102.506667 216.32a10.666667 10.666667 0 0 0 6.56 5.642667l194.069333 58.346666a10.666667 10.666667 0 0 1 3.797333 18.378667l-174.506666 146.954667a10.666667 10.666667 0 0 0-3.733334 9.258666l20.757334 201.301334a10.666667 10.666667 0 0 1-16.288 10.122666l-188.16-118.250666a10.666667 10.666667 0 0 0-9.6-0.885334l-206.634667 81.781334a10.666667 10.666667 0 0 1-14.154667-12.938667l57.28-194.090667a10.666667 10.666667 0 0 0-1.984-9.781333l-144.64-176.437333a10.666667 10.666667 0 0 1 7.104-17.365334z" fill="#FFE24B" p-id="1991" data-spm-anchor-id="a313x.collections_detail.0.i2.18403a81q9wxSL" class="selected"></path><path d="M390.08 310.208l137.6-190.037333c14.261333-19.701333 44.416-16.917333 54.826667 5.066666l100.48 212.021334 189.525333 56.992c24.352 7.317333 30.848 38.741333 11.402667 55.125333L713.706667 592.693333l20.181333 195.690667c2.741333 26.528-26.272 44.565333-48.853333 30.368l11.349333-18.058667a10.666667 10.666667 0 0 0 16.288-10.133333l-20.757333-201.290667a10.666667 10.666667 0 0 1 3.733333-9.258666L870.165333 433.066667a10.666667 10.666667 0 0 0-3.797333-18.378667l-194.069333-58.346667a10.666667 10.666667 0 0 1-6.570667-5.653333l-102.496-216.309333a10.666667 10.666667 0 0 0-18.272-1.685334L404.576 326.56a10.666667 10.666667 0 0 1-7.498667 4.352l-201.472 21.813333a10.666667 10.666667 0 0 0-7.104 17.365334l144.64 176.437333a10.666667 10.666667 0 0 1 1.984 9.781333l-57.28 194.090667a10.666667 10.666667 0 0 0 14.154667 12.938667l7.850667 19.84c-24.8 9.813333-50.016-13.226667-42.464-38.816l55.68-188.672-141.056-172.074667c-16.128-19.669333-3.978667-49.365333 21.301333-52.106667l196.757333-21.301333z m111.381333 393.173333l183.573334 115.370667 11.36-18.058667-188.16-118.250666a10.666667 10.666667 0 0 0-9.6-0.885334l-206.634667 81.781334 7.850667 19.84 201.6-79.786667z" fill="#D97D11" p-id="1992"></path><path d="M311.936 395.808l113.706667-12.309333a10.666667 10.666667 0 0 0 7.498666-4.352l44.213334-61.056 36.416-50.304a10.666667 10.666667 0 0 1 18.282666 1.685333l58.869334 124.245333a10.666667 10.666667 0 0 0 6.570666 5.653334l109.536 32.928a10.666667 10.666667 0 0 1 3.797334 18.378666l-99.136 83.488a10.666667 10.666667 0 0 0-3.733334 9.258667l11.584 112.405333a10.666667 10.666667 0 0 1-16.288 10.133334l-106.037333-66.645334a10.666667 10.666667 0 0 0-9.6-0.885333l-116.458667 46.08a10.666667 10.666667 0 0 1-14.165333-12.928l32-108.384a10.666667 10.666667 0 0 0-1.994667-9.781333l-82.165333-100.245334a10.666667 10.666667 0 0 1 7.104-17.365333z" fill="#F6D737" p-id="1993" data-spm-anchor-id="a313x.collections_detail.0.i3.18403a81q9wxSL" class=""></path><path d="M359.701333 406.506667l75.690667-8.192a10.666667 10.666667 0 0 0 7.488-4.352l31.253333-43.168 23.477334-32.426667a10.666667 10.666667 0 0 1 18.282666 1.696l39.957334 84.341333a10.666667 10.666667 0 0 0 6.570666 5.653334l72.906667 21.909333a10.666667 10.666667 0 0 1 3.797333 18.368l-66.474666 55.989333a10.666667 10.666667 0 0 0-3.733334 9.248l7.616 73.898667a10.666667 10.666667 0 0 1-16.288 10.122667l-70.464-44.277334a10.666667 10.666667 0 0 0-9.6-0.885333l-77.365333 30.613333a10.666667 10.666667 0 0 1-14.154667-12.928l21.013334-71.253333a10.666667 10.666667 0 0 0-1.973334-9.770667l-55.104-67.221333a10.666667 10.666667 0 0 1 7.104-17.365333z" fill="#FFE24B" p-id="1994"></path><path d="M287.978667 716.053333l-10.133334 34.346667a10.666667 10.666667 0 0 0 14.154667 12.938667l206.634667-81.781334a10.666667 10.666667 0 0 1 9.6 0.885334l188.16 118.250666a10.666667 10.666667 0 0 0 16.288-10.133333l-20.757334-201.290667a10.666667 10.666667 0 0 1 3.733334-9.258666L870.165333 433.066667a10.666667 10.666667 0 0 0-3.797333-18.378667l-40.565333-12.192-172.8 145.525333a10.666667 10.666667 0 0 0-3.754667 9.258667l20.768 201.301333a10.666667 10.666667 0 0 1-16.288 10.122667l-188.16-118.250667a10.666667 10.666667 0 0 0-9.6-0.885333L287.989333 716.053333zM657.173333 332.597333l-93.930666-198.24a10.666667 10.666667 0 0 0-18.272-1.685333l-6.069334 8.362667 84.170667 177.632a10.666667 10.666667 0 0 0 6.570667 5.653333l27.530666 8.277333z" fill="#E3C731" p-id="1995"></path><path d="M475.733333 268.8a10.666667 10.666667 0 0 1 2.133334 14.933333l-64 85.333334a10.666667 10.666667 0 0 1-7.573334 4.224l-58.666666 5.333333a10.666667 10.666667 0 0 1-1.92-21.248l53.941333-4.906667L460.8 270.933333a10.666667 10.666667 0 0 1 14.933333-2.133333z" fill="#FFF9D8" p-id="1996"></path><path d="M661.333333 682.666667a10.666667 10.666667 0 1 1-21.333333 0 10.666667 10.666667 0 0 1 21.333333 0zM672 640a10.666667 10.666667 0 1 1-21.333333 0 10.666667 10.666667 0 0 1 21.333333 0zM682.666667 554.666667a10.666667 10.666667 0 1 1-21.333334 0 10.666667 10.666667 0 0 1 21.333334 0zM633.002667 550.165333a6.165333 6.165333 0 1 1-12.341334 0 6.165333 6.165333 0 0 1 12.341334 0zM682.666667 514.837333a6.165333 6.165333 0 1 1-12.330667 0 6.165333 6.165333 0 0 1 12.330667 0zM658.005333 589.504a10.165333 10.165333 0 1 1-20.341333 0 10.165333 10.165333 0 0 1 20.341333 0zM769.002667 461.141333a6.165333 6.165333 0 1 1-12.341334 0 6.165333 6.165333 0 0 1 12.341334 0zM817.002667 459.146667a6.165333 6.165333 0 1 1-12.341334 0 6.165333 6.165333 0 0 1 12.341334 0zM773.002667 489.834667a8.170667 8.170667 0 1 1-16.341334 0 8.170667 8.170667 0 0 1 16.341334 0zM684.330667 608A6.165333 6.165333 0 1 1 672 608a6.165333 6.165333 0 0 1 12.330667 0zM630.997333 627.669333a6.165333 6.165333 0 1 1-12.330666 0 6.165333 6.165333 0 0 1 12.330666 0zM692.672 716.672a6.165333 6.165333 0 1 1-12.341333 0 6.165333 6.165333 0 0 1 12.341333 0zM620.672 592a12.672 12.672 0 1 1-25.344 0 12.672 12.672 0 0 1 25.344 0zM736 517.333333a16 16 0 1 1-32 0 16 16 0 0 1 32 0z" fill="#DBA416" p-id="1997"></path></svg>